<svg preserveAspectRatio="none" width="100%" height="100%" overflow="visible" style="display: block;" viewBox="0 0 31 30" fill="none" xmlns="http://www.w3.org/2000/svg">
<g id="Icon">
<path d="M20.6667 10C22.7884 10 24.8232 10.8429 26.3235 12.3431C27.8238 13.8434 28.6667 15.8783 28.6667 18V27.3333H23.3333V18C23.3333 17.2928 23.0524 16.6145 22.5523 16.1144C22.0522 15.6143 21.3739 15.3333 20.6667 15.3333C19.9594 15.3333 19.2811 15.6143 18.781 16.1144C18.281 16.6145 18 17.2928 18 18V27.3333H12.6667V18C12.6667 15.8783 13.5095 13.8434 15.0098 12.3431C16.5101 10.8429 18.5449 10 20.6667 10Z" stroke="var(--stroke-0, #1C78BF)" stroke-width="4" stroke-linecap="round" stroke-linejoin="round"/>
<path d="M7.33333 11.3333H2V27.3333H7.33333V11.3333Z" stroke="var(--stroke-0, #1C78BF)" stroke-width="4" stroke-linecap="round" stroke-linejoin="round"/>
<path d="M4.66667 7.33333C6.13943 7.33333 7.33333 6.13943 7.33333 4.66667C7.33333 3.19391 6.13943 2 4.66667 2C3.19391 2 2 3.19391 2 4.66667C2 6.13943 3.19391 7.33333 4.66667 7.33333Z" stroke="var(--stroke-0, #1C78BF)" stroke-width="4" stroke-linecap="round" stroke-linejoin="round"/>
</g>
</svg>
