<svg preserveAspectRatio="none" width="100%" height="100%" overflow="visible" style="display: block;" viewBox="0 0 21 21" fill="none" xmlns="http://www.w3.org/2000/svg">
<g id="phone-line">
<g id="Vector">
<path d="M8.19486 8.93087C9.01425 10.3076 10.2123 11.4523 11.6532 12.2352L12.4271 11.1999C12.6844 10.8558 13.1701 10.7495 13.5586 10.9522C14.7896 11.5947 16.15 11.9852 17.569 12.0925C18.0241 12.127 18.375 12.4898 18.375 12.926V16.6571C18.375 17.0858 18.0357 17.445 17.5894 17.4888C17.1258 17.5343 16.658 17.5572 16.1875 17.5572C8.69714 17.5572 2.625 11.7553 2.625 4.59833C2.625 4.14875 2.64899 3.70183 2.69665 3.25876C2.74251 2.83236 3.11845 2.50818 3.56707 2.50818H7.47199C7.92846 2.50818 8.30824 2.84347 8.34426 3.27826C8.45659 4.63418 8.86524 5.93405 9.53767 7.11022C9.74986 7.48139 9.63856 7.94552 9.27841 8.19135L8.19486 8.93087ZM5.98872 8.38166L7.65117 7.24704C7.17979 6.27474 6.85675 5.24362 6.69136 4.1803H4.38294C4.37765 4.31935 4.375 4.4587 4.375 4.59833C4.375 10.8318 9.66367 15.8851 16.1875 15.8851C16.3336 15.8851 16.4795 15.8826 16.625 15.8775V13.6718C15.5122 13.5138 14.433 13.2051 13.4154 12.7548L12.228 14.3433C11.7476 14.1649 11.2836 13.9551 10.839 13.7165L10.7881 13.6888C9.07349 12.7572 7.64867 11.3957 6.67362 9.7574L6.6447 9.70882C6.39493 9.28394 6.17535 8.84066 5.98872 8.38166Z" fill="#D9D9D9"/>
<path d="M8.19486 8.93087C9.01425 10.3076 10.2123 11.4523 11.6532 12.2352L12.4271 11.1999C12.6844 10.8558 13.1701 10.7495 13.5586 10.9522C14.7896 11.5947 16.15 11.9852 17.569 12.0925C18.0241 12.127 18.375 12.4898 18.375 12.926V16.6571C18.375 17.0858 18.0357 17.445 17.5894 17.4888C17.1258 17.5343 16.658 17.5572 16.1875 17.5572C8.69714 17.5572 2.625 11.7553 2.625 4.59833C2.625 4.14875 2.64899 3.70183 2.69665 3.25876C2.74251 2.83236 3.11845 2.50818 3.56707 2.50818H7.47199C7.92846 2.50818 8.30824 2.84347 8.34426 3.27826C8.45659 4.63418 8.86524 5.93405 9.53767 7.11022C9.74986 7.48139 9.63856 7.94552 9.27841 8.19135L8.19486 8.93087ZM5.98872 8.38166L7.65117 7.24704C7.17979 6.27474 6.85675 5.24362 6.69136 4.1803H4.38294C4.37765 4.31935 4.375 4.4587 4.375 4.59833C4.375 10.8318 9.66367 15.8851 16.1875 15.8851C16.3336 15.8851 16.4795 15.8826 16.625 15.8775V13.6718C15.5122 13.5138 14.433 13.2051 13.4154 12.7548L12.228 14.3433C11.7476 14.1649 11.2836 13.9551 10.839 13.7165L10.7881 13.6888C9.07349 12.7572 7.64867 11.3957 6.67362 9.7574L6.6447 9.70882C6.39493 9.28394 6.17535 8.84066 5.98872 8.38166Z" fill="#1C78BF"/>
<path d="M8.19486 8.93087C9.01425 10.3076 10.2123 11.4523 11.6532 12.2352L12.4271 11.1999C12.6844 10.8558 13.1701 10.7495 13.5586 10.9522C14.7896 11.5947 16.15 11.9852 17.569 12.0925C18.0241 12.127 18.375 12.4898 18.375 12.926V16.6571C18.375 17.0858 18.0357 17.445 17.5894 17.4888C17.1258 17.5343 16.658 17.5572 16.1875 17.5572C8.69714 17.5572 2.625 11.7553 2.625 4.59833C2.625 4.14875 2.64899 3.70183 2.69665 3.25876C2.74251 2.83236 3.11845 2.50818 3.56707 2.50818H7.47199C7.92846 2.50818 8.30824 2.84347 8.34426 3.27826C8.45659 4.63418 8.86524 5.93405 9.53767 7.11022C9.74986 7.48139 9.63856 7.94552 9.27841 8.19135L8.19486 8.93087ZM5.98872 8.38166L7.65117 7.24704C7.17979 6.27474 6.85675 5.24362 6.69136 4.1803H4.38294C4.37765 4.31935 4.375 4.4587 4.375 4.59833C4.375 10.8318 9.66367 15.8851 16.1875 15.8851C16.3336 15.8851 16.4795 15.8826 16.625 15.8775V13.6718C15.5122 13.5138 14.433 13.2051 13.4154 12.7548L12.228 14.3433C11.7476 14.1649 11.2836 13.9551 10.839 13.7165L10.7881 13.6888C9.07349 12.7572 7.64867 11.3957 6.67362 9.7574L6.6447 9.70882C6.39493 9.28394 6.17535 8.84066 5.98872 8.38166Z" fill="#1C78BF" fill-opacity="0.2"/>
</g>
</g>
</svg>
