<svg preserveAspectRatio="none" width="100%" height="100%" overflow="visible" style="display: block;" viewBox="0 0 112 56" fill="none" xmlns="http://www.w3.org/2000/svg">
<g id="Background">
<mask id="mask0_407_2191" style="mask-type:alpha" maskUnits="userSpaceOnUse" x="0" y="0" width="112" height="56">
<g id="Mask">
<rect width="112" height="56" fill="url(#paint0_linear_407_2191)"/>
</g>
</mask>
<g mask="url(#mask0_407_2191)">
<path id="Color" opacity="0.1" d="M109.014 9.53469L111.928 16.8212C111.976 16.9393 112 17.0654 112 17.1926V55C112 55.5523 111.552 56 111 56H1.32573C0.661351 56 0.181687 55.3641 0.364206 54.7253L3.4678 43.8627C3.69093 43.0817 4.70279 42.8785 5.21019 43.5127L7.39452 46.2432C7.73193 46.6649 8.34329 46.7425 8.77539 46.4185L11.9431 44.0426C11.981 44.0142 12.0168 43.9832 12.0503 43.9497L15.5996 40.4004C15.848 40.152 16.2085 40.0521 16.5493 40.1373L19.1016 40.7754C19.6086 40.9021 20.1276 40.6172 20.2928 40.1215L23.0924 31.7229C23.392 30.8241 24.6571 30.807 24.9809 31.6973L27.3245 38.1425C27.6047 38.9128 28.6417 39.0375 29.0964 38.3554L31.5103 34.7345C31.7901 34.3149 32.3385 34.1693 32.7896 34.3948L35.064 35.532C35.5739 35.787 36.1935 35.5647 36.425 35.0437L38.8497 29.5881C39.2328 28.7262 40.4867 28.8252 40.7298 29.7366L43.3198 39.4494C43.5571 40.339 44.7688 40.4625 45.1805 39.639L46.9603 36.0794C47.3529 35.2942 48.4945 35.3598 48.7945 36.1849L50.6075 41.1706C50.9649 42.1534 52.4003 41.9976 52.5385 40.9611L55.7326 17.0058C55.842 16.1847 56.8452 15.8452 57.4309 16.4309L58.8294 17.8294C59.3614 18.3614 60.2681 18.1376 60.4914 17.4192L63.5178 7.68412C63.7389 6.97282 64.6322 6.74429 65.1678 7.26202L66.9295 8.96509C67.4404 9.45903 68.2891 9.27734 68.553 8.61751L71.173 2.06757C71.4934 1.26644 72.61 1.21999 72.9959 1.99175L75.8509 7.70186C75.9477 7.89538 76.1046 8.05231 76.2981 8.14907L79.3668 9.68338C79.7462 9.87309 80.204 9.80277 80.509 9.50792L83.2207 6.88649C83.6405 6.48058 84.3175 6.51933 84.6883 6.97051L87.2274 10.06C87.6275 10.5467 88.3725 10.5467 88.7726 10.06L90.6992 7.71583C91.228 7.07239 92.2656 7.31955 92.4476 8.1323L95.3862 21.2583C95.5917 22.1763 96.8358 22.3284 97.2565 21.4871L99.4641 17.0717C99.7432 16.5137 100.459 16.3446 100.959 16.7189L102.89 18.1675C103.436 18.5771 104.223 18.3313 104.439 17.6838L107.137 9.58985C107.431 8.70609 108.668 8.66976 109.014 9.53469Z" fill="var(--fill-0, #17B26A)"/>
</g>
</g>
<defs>
<linearGradient id="paint0_linear_407_2191" x1="56" y1="0" x2="56" y2="56" gradientUnits="userSpaceOnUse">
<stop/>
<stop offset="1" stop-opacity="0"/>
</linearGradient>
</defs>
</svg>
