<svg preserveAspectRatio="none" width="100%" height="100%" overflow="visible" style="display: block;" viewBox="0 0 1338 58" fill="none" xmlns="http://www.w3.org/2000/svg">
<path id="Line" d="M1337 18L1289.51 8.04727C1289.36 8.01616 1289.21 8.01922 1289.06 8.05621L1241.72 19.962C1241.62 19.9872 1241.52 19.9967 1241.42 19.9902L1193.97 17.0072C1193.9 17.0024 1193.82 17.0064 1193.74 17.019L1146.41 24.9556C1146.23 24.9847 1146.06 24.9675 1145.89 24.9059L1098.65 7.21518C1098.5 7.16118 1098.35 7.14121 1098.2 7.15684L1050.82 11.9896C1050.75 11.9965 1050.68 11.9965 1050.61 11.9896L1003.09 7.14237C1003.03 7.13619 1002.97 7.13556 1002.91 7.14048L955.286 11L907.571 9L860.043 1.03118C859.92 1.01057 859.795 1.01312 859.673 1.03867L812.285 10.9703C812.191 10.99 812.094 10.9961 811.999 10.9883L764.602 7.14713C764.487 7.13784 764.372 7.1484 764.261 7.17835L716.884 19.9544C716.772 19.9846 716.655 19.995 716.54 19.9854L669.333 16.0279C669.117 16.0098 668.901 16.0624 668.717 16.1778L621.638 45.7788C621.412 45.9204 621.14 45.9664 620.881 45.9066L573.765 35.0447C573.637 35.0152 573.505 35.0112 573.375 35.0329L526.094 42.9603C525.938 42.9864 525.779 42.9754 525.628 42.9281L478.382 28.0751C478.225 28.0258 478.058 28.016 477.897 28.0464L430.541 36.9787C430.466 36.9929 430.39 36.9984 430.314 36.9952L382.798 35.0035C382.742 35.0012 382.687 35.0035 382.631 35.0104L335.176 40.9778C335.06 40.9925 334.941 40.9865 334.827 40.9601L287.521 30.0541C287.366 30.0186 287.206 30.0201 287.052 30.0588L239.702 41.9672C239.615 41.989 239.526 41.9991 239.437 41.9972L191.857 41L144.143 45L96.5122 47.9947C96.4566 47.9982 96.4007 47.9971 96.3452 47.9913L48.9106 43.0206C48.781 43.007 48.6499 43.0189 48.5249 43.0556L1 57" stroke="var(--stroke-0, #9E77ED)" stroke-width="2" stroke-linecap="round" stroke-linejoin="round"/>
</svg>
